<?xml version="1.0" encoding="UTF-8"?>
<!DOCTYPE svg PUBLIC "-//W3C//DTD SVG 1.0//EN" "http://www.w3.org/TR/2001/REC-SVG-20010904/DTD/svg10.dtd">
<!-- Creator: CorelDRAW X6 -->
<svg xmlns="http://www.w3.org/2000/svg" xml:space="preserve" width="64px" height="64px" version="1.0" style="shape-rendering:geometricPrecision; text-rendering:geometricPrecision; image-rendering:optimizeQuality; fill-rule:evenodd; clip-rule:evenodd"
viewBox="0 0 64000 64004"
 xmlns:xlink="http://www.w3.org/1999/xlink">
 <defs>
  <style type="text/css">
   <![CDATA[
    .fil0 {fill:#333333;fill-rule:nonzero}
   ]]>
  </style>
 </defs>
 <g id="Layer_x0020_1">
  <metadata id="CorelCorpID_0Corel-Layer"/>
  <path class="fil0" d="M1496 10725c-478,273 -1090,107 -1363,-371 -273,-478 -107,-1090 371,-1363l15500 -8857c318,-182 694,-169 992,0l15500 8857c478,273 644,885 371,1363 -273,478 -885,644 -1363,371l-15004 -8574 -15004 8574z"/>
  <path class="fil0" d="M1532 9011l14969 8554 15003 -8574c478,-273 1090,-107 1363,371 273,478 107,1090 -371,1363l-15499 8857c-298,169 -674,182 -992,0l-14005 -8002 0 15414 14997 8570c478,273 644,885 371,1363 -273,478 -885,644 -1363,371l-15501 -8858c-321,-183 -502,-521 -502,-867l-2 0 0 -17714c0,-552 449,-1000 1000,-1000 195,0 378,57 532,154z"/>
  <path class="fil0" d="M60987 9858l-13487 -7707 -13487 7707 13487 7707 13487 -7707zm-12991 -9724l15500 8857c150,85 280,210 371,371 273,478 107,1090 -371,1363l-15500 8857c-298,169 -674,182 -992,0l-15500 -8857c-150,-85 -280,-210 -371,-371 -273,-478 -107,-1090 371,-1363l15500 -8857c298,-169 674,-182 992,0z"/>
  <path class="fil0" d="M31000 9858c0,-552 449,-1000 1000,-1000 552,0 1000,449 1000,1000l0 17136 14498 8287 14501 -8287 0 -17136c0,-552 449,-1000 1000,-1000 552,0 1000,449 1000,1000l0 17714 -2 0c0,346 -181,684 -502,867l-15501 8858c-298,169 -674,182 -992,0l-15457 -8835c-324,-165 -546,-503 -546,-891l0 -17714z"/>
  <path class="fil0" d="M45486 36430l-13486 -7707 -13486 7707 13486 7706 13486 -7706zm-12990 -9724l15500 8857c150,85 280,210 371,371 273,478 107,1090 -371,1363l-15500 8856c-298,169 -674,182 -992,0l-15500 -8856c-150,-85 -280,-210 -371,-371 -273,-478 -107,-1090 371,-1363l15500 -8857c298,-169 674,-182 992,0z"/>
  <path class="fil0" d="M15501 36430c0,-552 449,-1000 1000,-1000 552,0 1000,449 1000,1000l0 17136 14498 8286 14499 -8286 0 -17136c0,-552 449,-1000 1000,-1000 552,0 1000,449 1000,1000l0 17714 -2 0c0,346 -181,684 -502,867l-15500 8857c-298,169 -674,182 -992,0l-15457 -8834c-324,-165 -546,-503 -546,-891l0 -17714z"/>
  <path class="fil0" d="M15500 1000c0,-552 449,-1000 1000,-1000 552,0 1000,449 1000,1000l0 35430c0,552 -449,1000 -1000,1000 -552,0 -1000,-449 -1000,-1000l0 -35430z"/>
  <path class="fil0" d="M1495 28439c-478,273 -1090,107 -1363,-371 -273,-478 -107,-1090 371,-1363l15501 -8857c318,-182 694,-169 992,0l15500 8858c478,273 644,885 371,1363 -273,478 -885,644 -1363,371l-15004 -8575 -15005 8574z"/>
  <path class="fil0" d="M46498 18715c0,-552 449,-1000 1000,-1000 552,0 1000,449 1000,1000l0 17716c0,552 -449,1000 -1000,1000 -552,0 -1000,-449 -1000,-1000l0 -17716z"/>
  <path class="fil0" d="M31000 45288c0,-552 449,-1000 1000,-1000 552,0 1000,449 1000,1000l0 17716c0,552 -449,1000 -1000,1000 -552,0 -1000,-449 -1000,-1000l0 -17716z"/>
 </g>
</svg>
