<?xml version="1.0" encoding="UTF-8"?>
<!DOCTYPE svg PUBLIC "-//W3C//DTD SVG 1.0//EN" "http://www.w3.org/TR/2001/REC-SVG-20010904/DTD/svg10.dtd">
<!-- Creator: CorelDRAW X6 -->
<svg xmlns="http://www.w3.org/2000/svg" xml:space="preserve" width="46px" height="64px" version="1.0" style="shape-rendering:geometricPrecision; text-rendering:geometricPrecision; image-rendering:optimizeQuality; fill-rule:evenodd; clip-rule:evenodd"
viewBox="0 0 9321 13041"
 xmlns:xlink="http://www.w3.org/1999/xlink">
 <defs>
  <style type="text/css">
   <![CDATA[
    .fil0 {fill:#333333;fill-rule:nonzero}
   ]]>
  </style>
 </defs>
 <g id="Layer_x0020_1">
  <metadata id="CorelCorpID_0Corel-Layer"/>
  <path class="fil0" d="M4063 5546c47,-102 168,-146 270,-99 102,47 146,168 99,270l-2370 5128c-47,102 -168,146 -270,99l-6 -3 -1169 -540c-102,-47 -146,-168 -99,-270l3 -6 2662 -5760c47,-102 168,-146 270,-99 102,47 146,168 99,270l-2580 5582 806 373 2285 -4944z"/>
  <path class="fil0" d="M1513 10554c63,-93 190,-116 283,-53 93,63 116,190 53,283l-1478 2169c-63,93 -190,116 -283,53 -78,-53 -107,-151 -77,-235l691 -2517c29,-108 141,-172 249,-142 108,29 172,141 142,249l-372 1356 792 -1162z"/>
  <path class="fil0" d="M4889 5716c-47,-102 -2,-223 99,-270 102,-47 223,-2 270,99l2285 4944 806 -373 -2580 -5581c-47,-102 -2,-223 99,-270 102,-47 223,-2 270,99l2662 5760 3 6c47,102 2,223 -99,270l-1169 540 -6 3c-102,47 -223,2 -270,-99l-2370 -5129z"/>
  <path class="fil0" d="M7472 10783c-63,-93 -39,-219 53,-283 93,-63 219,-39 283,53l792 1162 -372 -1356c-29,-108 34,-220 142,-249 108,-29 220,34 249,142l691 2517c30,85 0,183 -77,236 -93,63 -219,39 -283,-53l-1478 -2169z"/>
  <path class="fil0" d="M4660 5495l1 0c299,0 572,-123 770,-321 198,-198 321,-471 321,-770l0 -1959 -2182 0 0 1959c0,299 123,572 321,770l9 10c196,192 465,311 761,311zm1 408l-1 0c-406,0 -776,-164 -1046,-429l-12 -11c-271,-271 -440,-646 -440,-1058l0 -2157 0 -5c0,-112 91,-204 204,-204l2584 0 5 0c112,0 204,91 204,204l0 2163c0,412 -169,787 -440,1058 -271,271 -646,440 -1058,440z"/>
  <path class="fil0" d="M4253 2242c0,112 -91,204 -204,204 -112,0 -204,-91 -204,-204l0 -1427c0,-223 92,-427 239,-575l1 -1c148,-148 352,-239 575,-239l0 0c223,0 427,92 575,239l0 0 0 0c147,147 239,351 239,576l0 1427c0,112 -91,204 -204,204 -112,0 -204,-91 -204,-204l0 -1427c0,-112 -46,-214 -120,-288l0 0c-74,-73 -176,-119 -288,-119l0 0c-112,0 -214,45 -288,119l-1 1c-73,73 -119,175 -119,288l0 1427z"/>
  <path class="fil0" d="M4661 3668c197,0 375,80 504,209l14 15c121,128 195,300 195,489 0,197 -80,375 -209,504 -129,129 -307,209 -504,209 -196,0 -375,-80 -504,-209l0 0c-129,-129 -209,-307 -209,-504 0,-196 80,-374 209,-503l1 -1c129,-129 307,-209 503,-209zm216 497c-55,-55 -132,-90 -216,-90 -85,0 -161,34 -216,89l-1 1c-55,54 -89,131 -89,216 0,84 34,161 90,216l0 0 0 0c54,55 131,89 216,89 84,0 161,-34 216,-90 55,-55 90,-132 90,-216 0,-80 -30,-153 -80,-207l-10 -9z"/>
  <path class="fil0" d="M829 7863c-66,-90 -46,-218 45,-283 90,-66 218,-46 283,45 166,228 663,568 1321,852 531,229 1159,416 1793,473 111,10 194,108 185,220 -10,111 -108,194 -220,185 -684,-61 -1356,-260 -1918,-503 -723,-312 -1285,-708 -1488,-987zm4044 1505c-112,5 -207,-82 -212,-194 -5,-112 82,-207 194,-212 658,-30 1318,-209 1879,-440 710,-291 1253,-656 1429,-898 66,-91 193,-111 284,-45 91,66 111,193 45,284 -213,293 -825,715 -1604,1035 -599,246 -1306,438 -2016,470z"/>
  <path class="fil0" d="M4559 8151c140,0 268,58 360,149 92,92 149,219 149,360l0 1019c0,140 -58,268 -149,360 -92,92 -220,149 -360,149 -141,0 -268,-58 -360,-149 -92,-92 -149,-220 -149,-360l0 -1019c0,-141 58,-268 149,-360 92,-92 219,-149 360,-149zm72 438c-19,-19 -44,-30 -72,-30 -28,0 -53,12 -72,30 -19,19 -30,44 -30,72l0 1019c0,28 12,53 30,72 19,19 44,30 72,30 28,0 53,-12 72,-30 19,-19 30,-44 30,-72l0 -1019c0,-28 -12,-53 -30,-72z"/>
 </g>
</svg>
