<?xml version="1.0" encoding="UTF-8"?>
<!DOCTYPE svg PUBLIC "-//W3C//DTD SVG 1.0//EN" "http://www.w3.org/TR/2001/REC-SVG-20010904/DTD/svg10.dtd">
<!-- Creator: CorelDRAW X6 -->
<svg xmlns="http://www.w3.org/2000/svg" xml:space="preserve" width="64px" height="64px" version="1.0" style="shape-rendering:geometricPrecision; text-rendering:geometricPrecision; image-rendering:optimizeQuality; fill-rule:evenodd; clip-rule:evenodd"
viewBox="0 0 35315 35314"
 xmlns:xlink="http://www.w3.org/1999/xlink">
 <defs>
  <style type="text/css">
   <![CDATA[
    .fil0 {fill:#333333;fill-rule:nonzero}
   ]]>
  </style>
 </defs>
 <g id="Layer_x0020_1">
  <metadata id="CorelCorpID_0Corel-Layer"/>
  <path class="fil0" d="M5313 15312c572,0 1089,233 1462,606l38 42c353,371 568,873 568,1421 0,568 -232,1086 -607,1461l1 1c-373,373 -891,606 -1462,606 -569,0 -1086,-232 -1462,-607l-1 1c-373,-373 -606,-891 -606,-1462 0,-572 233,-1090 606,-1463l42 -38c371,-353 873,-568 1421,-568zm682 1387c-174,-174 -416,-283 -682,-283 -256,0 -488,98 -658,257l-24 26c-174,174 -283,416 -283,682 0,266 109,508 283,682l-1 1 1 1c172,173 414,280 682,280 266,0 508,-109 682,-283l1 1 1 -1c173,-172 280,-414 280,-682 0,-255 -98,-488 -257,-658l-26 -24z"/>
  <path class="fil0" d="M30004 15312c572,0 1089,233 1462,606l38 42c353,371 568,873 568,1421 0,568 -232,1086 -607,1461l1 1c-373,373 -891,606 -1462,606 -569,0 -1086,-232 -1462,-607l-1 1c-373,-373 -606,-891 -606,-1462 0,-572 233,-1090 606,-1463l42 -38c371,-353 873,-568 1421,-568zm682 1387c-174,-174 -416,-283 -682,-283 -256,0 -488,98 -658,257l-24 26c-174,174 -283,416 -283,682 0,266 109,508 283,682l-1 1 1 1c172,173 414,280 682,280 266,0 508,-109 682,-283l1 1 1 -1c173,-172 280,-414 280,-682 0,-255 -98,-488 -257,-658l-26 -24z"/>
  <path class="fil0" d="M27511 12855c214,215 212,564 -3,778 -215,214 -564,212 -778,-3l-6892 -6906 -3180 3180 2948 2948c215,215 215,566 0,781 -215,215 -566,215 -781,0l-3338 -3338c-215,-215 -215,-566 0,-781l3960 -3960 1 1 1 -1c215,-214 564,-212 778,3l7283 7298z"/>
  <path class="fil0" d="M16341 9609c163,255 87,596 -168,759 -255,163 -596,87 -759,-168l-3081 -4839c-163,-255 -87,-596 168,-759 255,-163 596,-87 759,168l3081 4839zm-1639 -6281c-255,-163 -331,-503 -168,-759 163,-255 503,-331 759,-168l4840 3080c255,163 331,503 168,759 -163,255 -503,331 -759,168l-4840 -3080z"/>
  <path class="fil0" d="M12941 4140l1131 -1131 -2321 -1190 1189 2321zm2446 -885l-2200 2200 -2 -2c-39,40 -85,74 -138,101 -270,138 -602,31 -740,-239l-2310 -4508 -3 -5c-77,-152 -84,-338 0,-500 138,-270 470,-377 740,-239l4467 2289c68,27 131,68 186,123 215,215 215,566 0,781z"/>
  <path class="fil0" d="M23566 12853c215,215 215,566 0,781 -215,215 -566,215 -781,0l-5272 -5272c-215,-215 -215,-566 0,-781 215,-215 566,-215 781,0l5272 5272z"/>
  <path class="fil0" d="M4690 12691l25935 0c1290,0 2463,528 3313,1377 849,849 1377,2022 1377,3313l0 1c0,1290 -528,2463 -1377,3313 -849,849 -2022,1377 -3313,1377l-25935 0c-1290,0 -2463,-528 -3313,-1377 -849,-849 -1377,-2022 -1377,-3313l0 -1c0,-1290 528,-2463 1377,-3313 849,-849 2022,-1377 3313,-1377zm25935 1104l-25935 0c-985,0 -1882,404 -2532,1054 -650,650 -1054,1546 -1054,2532l0 1c0,985 404,1882 1054,2532 650,650 1546,1054 2532,1054l25935 0c985,0 1882,-404 2532,-1054 650,-650 1054,-1546 1054,-2532l0 -1c0,-985 -404,-1882 -1054,-2532 -650,-650 -1546,-1054 -2532,-1054z"/>
  <path class="fil0" d="M27195 12852l1 1c100,100 162,239 162,390 0,197 -104,370 -259,467l-5 3c-83,51 -182,81 -288,81l-1 0 0 -1c-141,0 -283,-53 -390,-161 -215,-215 -215,-566 0,-781l1 -1c111,-111 258,-165 403,-161l2 0 22 1 10 1c48,4 95,14 141,31l5 1c72,27 140,69 198,127zm-9058 8277c215,-215 566,-215 781,0 215,215 215,566 0,781l-6390 6390 5522 5522 12728 -12728c215,-215 566,-215 781,0 215,215 215,566 0,781l-13119 13119c-215,215 -566,215 -781,0l-6303 -6303c-215,-215 -215,-566 0,-781l6780 -6780z"/>
  <path class="fil0" d="M16965 23085c-215,-214 -216,-563 -3,-778 214,-215 563,-216 778,-3l2252 2251c215,214 216,563 3,778 -214,215 -563,216 -778,3l-2252 -2251z"/>
  <path class="fil0" d="M15163 24884c-215,-215 -215,-566 0,-781 215,-215 566,-215 781,0l1396 1396c215,215 215,566 0,781 -215,215 -566,215 -781,0l-1396 -1396z"/>
  <path class="fil0" d="M13362 26684c-215,-215 -215,-566 0,-781 215,-215 566,-215 781,0l2252 2252c215,215 215,566 0,781 -215,215 -566,215 -781,0l-2252 -2252z"/>
  <path class="fil0" d="M28141 13243c0,304 -248,552 -552,552 -304,0 -552,-248 -552,-552l0 -3173c0,-304 248,-552 552,-552l14 0 3848 0c304,0 552,248 552,552l0 14 0 3159c0,304 -248,552 -552,552 -304,0 -552,-248 -552,-552l0 -2621 -2759 0 0 2621z"/>
  <path class="fil0" d="M28141 9519l2759 0 0 -2069 -2759 0 0 2069zm3311 1104l-3848 0 -14 0c-304,0 -552,-248 -552,-552l0 -3159 0 -14c0,-304 248,-552 552,-552l3848 0 14 0c304,0 552,248 552,552l0 3159 0 14c0,304 -248,552 -552,552z"/>
  <path class="fil0" d="M30900 3724c0,-304 248,-552 552,-552 304,0 552,248 552,552l0 3173c0,304 -248,552 -552,552 -304,0 -552,-248 -552,-552l0 -3173zm-2759 3173c0,304 -248,552 -552,552 -304,0 -552,-248 -552,-552l0 -3173c0,-304 248,-552 552,-552 304,0 552,248 552,552l0 3173z"/>
  <path class="fil0" d="M28141 3173l2759 0 0 -2069 -2759 0 0 2069zm3311 1104l-3848 0 -14 0c-304,0 -552,-248 -552,-552l0 -3159 0 -14c0,-304 248,-552 552,-552l3848 0 14 0c304,0 552,248 552,552l0 3159 0 14c0,304 -248,552 -552,552z"/>
  <path class="fil0" d="M8933 13243c0,304 -248,552 -552,552 -304,0 -552,-248 -552,-552l0 -1911 -2392 0 0 1911c0,304 -248,552 -552,552 -304,0 -552,-248 -552,-552l0 -2448 0 -14c0,-304 248,-552 552,-552l3481 0 14 0c304,0 552,248 552,552l0 2463z"/>
  <path class="fil0" d="M7145 343l2859 6011c60,127 66,266 29,392l1 0 -1256 4192c-71,239 -291,394 -528,394l0 1 -3036 0c-259,0 -478,-181 -536,-422l-1437 -4143c-49,-141 -36,-289 23,-414l-2 -1 2875 -6036c131,-274 461,-392 735,-261 128,61 222,166 273,289zm1773 6289l-2282 -4798 -2282 4790 1250 3605 2237 0 1077 -3596z"/>
  <path class="fil0" d="M7221 8077c1,303 -244,551 -547,551 -303,1 -551,-244 -551,-547l-25 -5320c-1,-303 244,-551 547,-551 303,-1 551,244 551,547l25 5320z"/>
  <path class="fil0" d="M7829 21519c0,-304 248,-552 552,-552 304,0 552,248 552,552l0 9840c0,350 -83,688 -227,991 -109,227 -254,433 -428,611l0 1801c0,304 -248,552 -552,552l-14 0 -2193 0c-304,0 -552,-248 -552,-552l0 -14 0 -1810c-168,-177 -309,-381 -414,-603l-10 -25c-134,-293 -209,-615 -209,-950l0 -9840c0,-304 248,-552 552,-552 304,0 552,248 552,552l0 9840c0,173 36,336 98,480l12 26c70,147 167,279 286,386 143,100 236,265 236,452l0 1507 1103 0 0 -1488 2 0c0,-161 70,-320 205,-429 140,-113 255,-256 332,-417 73,-153 115,-329 115,-516l0 -9840zm-3286 10790c-111,-269 8,-583 274,-708"/>
 </g>
</svg>
