<?xml version="1.0" encoding="utf-8"?>
<!-- Generator: Adobe Illustrator 15.0.2, SVG Export Plug-In . SVG Version: 6.00 Build 0)  -->
<!DOCTYPE svg PUBLIC "-//W3C//DTD SVG 1.1//EN" "http://www.w3.org/Graphics/SVG/1.1/DTD/svg11.dtd">
<svg version="1.1" id="Layer_1" xmlns="http://www.w3.org/2000/svg" xmlns:xlink="http://www.w3.org/1999/xlink" x="0px" y="0px"
	 width="64px" height="64.006px" viewBox="0 -7.003 64 64.006" enable-background="new 0 -7.003 64 64.006" xml:space="preserve">
<g id="Layer_x0020_1">
	<path d="M1,0h0.026h61.973c0.552,0,1,0.449,1,1v0.026v5.948V7v0.026v41.973c0,0.552-0.449,1-1,1h-0.026H1c-0.552,0-1-0.449-1-1
		v-0.026V7.026V7V6.974V1C0,0.448,0.449,0,1,0z M20.011,34.005h23.991v2.001H20.011V34.005z M19.998,38.005H37v2.001H19.998V38.005z
		 M20.011,25h19.988v2.001H20.011V25z M19.998,29h11.051v2.001H19.998V29z M20.011,15.995h19.988v2.001H20.011V15.995z
		 M19.998,19.995h23.998v2.001H19.998V19.995z M48.973,42.001c-0.553,0-1-0.449-1-1c0-0.552,0.448-1,1-1c1.5,0,3,0,3-1.037v-8.963
		c0-0.912,0.352-1.552,0.891-2.001c-0.539-0.449-0.891-1.089-0.891-2.001v-8.963c0-1.037-1.5-1.037-3-1.037c-0.553,0-1-0.449-1-1
		c0-0.552,0.448-1,1-1c2.5,0,5,0,5,3.038V26c0,0.42,0.395,0.658,0.861,0.794c0.727,0.211,1.635,0.211,2.135,0.21
		c0.129,0,0.252,0.023,0.365,0.069l0.007,0.004c0.046,0.018,0.089,0.039,0.13,0.063l0.014,0.008l0.007,0.004
		c0.1,0.062,0.188,0.142,0.262,0.231l0.005,0.007c0.044,0.058,0.083,0.118,0.113,0.184l0.007,0.014l0.028,0.067l0.002,0.008
		l0.013,0.038l0.002,0.008l0.005,0.016l0.002,0.008l0.006,0.015v0.008l0.006,0.015v0.01l0.004,0.014l0.002,0.009l0.004,0.015
		l0.001,0.01l0.004,0.015l0.001,0.009l0.002,0.016v0.009l0.002,0.015l0.001,0.01l0.001,0.015l0.001,0.009l0.001,0.018v0.009
		l0.001,0.015v0.01v0.017v0.009v0.018v0.008l-0.001,0.016v0.009l-0.001,0.017l-0.001,0.01l-0.001,0.015l-0.001,0.009l-0.002,0.016
		v0.009l-0.002,0.015l-0.001,0.01l-0.004,0.015l-0.001,0.009l-0.004,0.016l-0.002,0.008l-0.004,0.015v0.009l-0.006,0.016v0.008
		l-0.006,0.015l-0.002,0.009l-0.005,0.014l-0.002,0.009l-0.013,0.038l-0.002,0.008l-0.028,0.066l-0.007,0.015
		c-0.031,0.065-0.069,0.126-0.113,0.183l-0.005,0.008c-0.073,0.09-0.162,0.168-0.262,0.23l-0.007,0.005l-0.014,0.007
		c-0.041,0.025-0.084,0.047-0.13,0.064l-0.007,0.004c-0.113,0.045-0.236,0.07-0.365,0.068c-0.502,0-1.41,0-2.135,0.209
		c-0.467,0.137-0.861,0.375-0.861,0.795v8.964c0,3.038-2.5,3.038-5,3.038V42.001z M15.028,40c0.552,0,1,0.449,1,1
		c0,0.552-0.449,1-1,1c-2.5,0-5.001,0-5.001-3.038v-8.963c0-0.42-0.394-0.659-0.861-0.795c-0.725-0.21-1.633-0.21-2.135-0.209
		c-0.129,0-0.252-0.024-0.365-0.069l-0.007-0.004c-0.045-0.018-0.089-0.039-0.13-0.064l-0.014-0.006l-0.006-0.006
		c-0.1-0.061-0.189-0.141-0.262-0.23l-0.005-0.008c-0.044-0.057-0.081-0.117-0.113-0.183l-0.007-0.014l-0.028-0.067l-0.002-0.008
		l-0.013-0.038L6.077,28.29l-0.005-0.015L6.07,28.268l-0.005-0.016l-0.001-0.008l-0.005-0.016L6.058,28.22l-0.004-0.014
		l-0.001-0.009l-0.004-0.016l-0.001-0.009l-0.004-0.015l-0.001-0.01l-0.002-0.015v-0.009l-0.002-0.016l-0.001-0.008l-0.001-0.016
		l-0.001-0.009l-0.001-0.017v-0.01l-0.001-0.015v-0.009V28.01v-0.009v-0.017v-0.01l0.001-0.015v-0.009l0.001-0.018l0.001-0.009
		l0.001-0.015l0.001-0.01l0.002-0.015v-0.009l0.002-0.016l0.001-0.008l0.004-0.016l0.001-0.009l0.004-0.015l0.001-0.01l0.004-0.014
		l0.001-0.009l0.005-0.015l0.001-0.009l0.005-0.015l0.002-0.008l0.005-0.016l0.002-0.008l0.013-0.038l0.002-0.008L6.122,27.6
		l0.007-0.014c0.032-0.064,0.069-0.126,0.113-0.184l0.005-0.006c0.073-0.092,0.162-0.17,0.262-0.231l0.006-0.005l0.014-0.008
		c0.041-0.024,0.085-0.045,0.13-0.063l0.007-0.004c0.115-0.045,0.237-0.069,0.365-0.069c0.501,0.002,1.409,0.002,2.135-0.209
		c0.467-0.137,0.861-0.373,0.861-0.795v-8.963c0-1.553,0.774-2.334,1.93-2.727c0.913-0.312,1.992-0.312,3.071-0.312
		c0.552,0,1,0.449,1,1c0,0.552-0.449,1-1,1c-0.921,0-1.845,0.001-2.431,0.2c-0.34,0.116-0.569,0.356-0.569,0.837v8.963
		c0,0.912-0.352,1.552-0.892,2.001c0.54,0.449,0.892,1.09,0.892,2.002v8.963c0,1.037,1.5,1.037,3,1.037V40z M12.001,2.998h2v2.001
		h-2V2.998z M8.001,2.998h2v2.001h-2V2.998z M4.001,2.998h2v2.001h-2V2.998z M62,7.999H2.001v39.998H62V7.999z M2.001,5.998H62
		V1.999H2.001V5.998z"/>
</g>
</svg>
