<?xml version="1.0" encoding="UTF-8"?>
<!DOCTYPE svg PUBLIC "-//W3C//DTD SVG 1.0//EN" "http://www.w3.org/TR/2001/REC-SVG-20010904/DTD/svg10.dtd">
<!-- Creator: CorelDRAW X6 -->
<svg xmlns="http://www.w3.org/2000/svg" xml:space="preserve" width="64px" height="64px" version="1.0" style="shape-rendering:geometricPrecision; text-rendering:geometricPrecision; image-rendering:optimizeQuality; fill-rule:evenodd; clip-rule:evenodd"
viewBox="0 0 13839 13839"
 xmlns:xlink="http://www.w3.org/1999/xlink">
 <defs>
  <style type="text/css">
   <![CDATA[
    .fil0 {fill:#333333;fill-rule:nonzero}
   ]]>
  </style>
 </defs>
 <g id="Layer_x0020_1">
  <metadata id="CorelCorpID_0Corel-Layer"/>
  <path class="fil0" d="M13406 9097c0,-119 97,-216 216,-216 119,0 216,97 216,216l0 1605c0,119 -97,216 -216,216l-6 0 -13400 0c-119,0 -216,-97 -216,-216l0 -6 0 -1599c0,-119 97,-216 216,-216 119,0 216,97 216,216l0 1389 12973 0 0 -1389z"/>
  <path class="fil0" d="M8217 10702c0,-119 97,-216 216,-216 119,0 216,97 216,216l0 2056c0,119 -97,216 -216,216 -119,0 -216,-97 -216,-216l0 -2056zm-2594 2056c0,119 -97,216 -216,216 -119,0 -216,-97 -216,-216l0 -2056c0,-119 97,-216 216,-216 119,0 216,97 216,216l0 2056z"/>
  <path class="fil0" d="M4109 13406l5621 0 0 -432 -5621 0 0 432zm5837 433l-6048 0 -6 0c-119,0 -216,-97 -216,-216l0 -859 0 -6c0,-119 97,-216 216,-216l6048 0 6 0c119,0 216,97 216,216l0 859 0 6c0,119 -97,216 -216,216z"/>
  <path class="fil0" d="M1104 0l11630 0c304,0 580,124 780,324 200,200 324,476 324,780l0 7993c0,119 -97,216 -216,216l-6 0 -13400 0c-119,0 -216,-97 -216,-216l0 -6 0 -7987c0,-304 124,-580 324,-780 200,-200 477,-324 780,-324zm11630 433l-11630 0c-184,0 -353,76 -474,197 -122,122 -197,290 -197,474l0 7776 12973 0 0 -7776c0,-184 -76,-353 -197,-474 -122,-122 -290,-197 -474,-197z"/>
  <path class="fil0" d="M10697 2774l0 433 -864 0 0 -433 864 0zm-6908 3780l0 6 433 0 0 -6 -433 0zm233 1502l0 -433 865 0 0 433 -865 0zm2162 0l0 -433 865 0 0 433 -865 0zm2162 0l0 -433 865 0 0 433 -865 0zm2162 0l0 -433 865 0 0 433 -865 0zm1129 -1465l-433 0 0 -865 433 0 0 865zm0 -2162l-433 0 0 -865 433 0 0 865z"/>
  <path class="fil0" d="M2418 1256l6 0 7410 0c119,0 216,97 216,216l0 6 0 4844c0,119 -97,216 -216,216l-6 0 -7410 0c-119,0 -216,-97 -216,-216l0 -6 0 -4844c0,-119 97,-216 216,-216zm7199 433l-6983 0 0 4417 6983 0 0 -4417z"/>
  <path class="fil0" d="M10013 6204c66,99 38,233 -61,299 -99,66 -233,38 -299,-61l-1663 -2506 -938 1049c-79,88 -216,96 -304,17 -10,-9 -18,-18 -26,-28l0 0 -1705 -2176 -2419 3644c-66,99 -200,126 -299,61 -99,-66 -126,-200 -61,-299l2584 -3893c13,-19 28,-36 47,-51 94,-73 229,-56 302,37l1731 2209 943 -1055c14,-18 31,-33 51,-46 99,-66 233,-38 299,61l1818 2738z"/>
  <path class="fil0" d="M6960 1883c221,0 423,90 569,236l1 1c146,146 236,347 236,569 0,222 -90,424 -236,570l-15 14c-145,138 -340,222 -555,222 -222,0 -424,-90 -570,-236 -146,-146 -236,-348 -236,-570 0,-222 90,-423 236,-569l-1 -1c146,-146 348,-236 570,-236zm264 541c-67,-67 -160,-108 -264,-108 -103,0 -196,42 -264,109l-1 -1 -1 1c-67,67 -108,160 -108,264 0,103 42,196 109,264 67,67 161,109 264,109 99,0 188,-38 254,-99l9 -10c67,-67 109,-161 109,-264 0,-104 -42,-197 -108,-264l-1 -1zm291 848c-85,70 -211,66 -291,-14"/>
 </g>
</svg>
