<?xml version="1.0" encoding="UTF-8"?>
<!DOCTYPE svg PUBLIC "-//W3C//DTD SVG 1.0//EN" "http://www.w3.org/TR/2001/REC-SVG-20010904/DTD/svg10.dtd">
<!-- Creator: CorelDRAW X6 -->
<svg xmlns="http://www.w3.org/2000/svg" xml:space="preserve" width="64px" height="64px" version="1.0" style="shape-rendering:geometricPrecision; text-rendering:geometricPrecision; image-rendering:optimizeQuality; fill-rule:evenodd; clip-rule:evenodd"
viewBox="0 0 16788 16788"
 xmlns:xlink="http://www.w3.org/1999/xlink">
 <defs>
  <style type="text/css">
   <![CDATA[
    .fil0 {fill:#333333;fill-rule:nonzero}
   ]]>
  </style>
 </defs>
 <g id="Layer_x0020_1">
  <metadata id="CorelCorpID_0Corel-Layer"/>
  <path class="fil0" d="M16154 3258l-2625 -2625 -12895 12895 2625 2625 12895 -12895zm-2439 -3182l2996 2996c102,102 102,269 0,371l-13267 13267c-102,102 -269,102 -371,0l-2996 -2996c-102,-102 -102,-269 0,-371l13267 -13267c102,-102 269,-102 371,0z"/>
  <path class="fil0" d="M12273 1518c-102,-102 -102,-269 0,-371 102,-102 269,-102 371,0l1070 1070c102,102 102,269 0,371 -102,102 -269,102 -371,0l-1070 -1070z"/>
  <path class="fil0" d="M11418 2374c-102,-102 -102,-269 0,-371 102,-102 269,-102 371,0l664 664c102,102 102,269 0,371 -102,102 -269,102 -371,0l-664 -664z"/>
  <path class="fil0" d="M10562 3230c-102,-102 -102,-269 0,-371 102,-102 269,-102 371,0l1070 1070c102,102 102,269 0,371 -102,102 -269,102 -371,0l-1070 -1070z"/>
  <path class="fil0" d="M9706 4085c-102,-102 -102,-269 0,-371 102,-102 269,-102 371,0l664 664c102,102 102,269 0,371 -102,102 -269,102 -371,0l-664 -664z"/>
  <path class="fil0" d="M8851 4941c-102,-102 -102,-269 0,-371 102,-102 269,-102 371,0l1070 1070c102,102 102,269 0,371 -102,102 -269,102 -371,0l-1070 -1070z"/>
  <path class="fil0" d="M7995 5797c-102,-102 -102,-269 0,-371 102,-102 269,-102 371,0l664 664c102,102 102,269 0,371 -102,102 -269,102 -371,0l-664 -664z"/>
  <path class="fil0" d="M7139 6653c-102,-102 -102,-269 0,-371 102,-102 269,-102 371,0l1070 1070c102,102 102,269 0,371 -102,102 -269,102 -371,0l-1070 -1070z"/>
  <path class="fil0" d="M6283 7508c-102,-102 -102,-269 0,-371 102,-102 269,-102 371,0l664 664c102,102 102,269 0,371 -102,102 -269,102 -371,0l-664 -664z"/>
  <path class="fil0" d="M5428 8364c-102,-102 -102,-269 0,-371 102,-102 269,-102 371,0l1070 1070c102,102 102,269 0,371 -102,102 -269,102 -371,0l-1070 -1070z"/>
  <path class="fil0" d="M4572 9220c-102,-102 -102,-269 0,-371 102,-102 269,-102 371,0l664 664c102,102 102,269 0,371 -102,102 -269,102 -371,0l-664 -664z"/>
  <path class="fil0" d="M3716 10075c-102,-102 -102,-269 0,-371 102,-102 269,-102 371,0l1070 1070c102,102 102,269 0,371 -102,102 -269,102 -371,0l-1070 -1070z"/>
  <path class="fil0" d="M2862 10931c-102,-102 -103,-268 -1,-370 102,-102 268,-103 370,-1l664 664c102,102 103,268 1,370 -102,102 -268,103 -370,1l-664 -664z"/>
  <path class="fil0" d="M1149 12643c-102,-102 -102,-269 0,-371 102,-102 269,-102 371,0l664 664c102,102 102,269 0,371 -102,102 -269,102 -371,0l-664 -664z"/>
  <path class="fil0" d="M2003 11789c-102,-102 -102,-269 0,-371 102,-102 269,-102 371,0l1070 1070c102,102 102,269 0,371 -102,102 -269,102 -371,0l-1070 -1070z"/>
  <path class="fil0" d="M6156 7636c102,102 102,269 0,371 -102,102 -269,102 -371,0l-4510 -4510c-102,-102 -102,-269 0,-371l1851 -1851c102,-102 269,-102 371,0l4510 4510c102,102 102,269 0,371 -102,102 -269,102 -371,0l-4325 -4325 -1480 1480 4325 4325zm4476 1516c-102,-102 -102,-269 0,-371 102,-102 269,-102 371,0l3188 3188c102,102 102,269 0,371l-1851 1851c-102,102 -269,102 -371,0l-3188 -3188c-102,-102 -102,-269 0,-371 102,-102 269,-102 371,0l3002 3002 1480 -1480 -3002 -3002z"/>
  <path class="fil0" d="M3497 1275c102,102 102,269 0,371 -102,102 -269,102 -371,0l-1028 -1028c-62,-62 -144,-93 -226,-93 -82,0 -164,31 -226,93l-1028 1028 -11 10c-55,60 -82,138 -82,216 0,82 31,164 93,226l1028 1028c102,102 102,269 0,371 -102,102 -269,102 -371,0l-1028 -1028c-164,-164 -247,-381 -247,-597 0,-208 77,-416 230,-579l17 -18 1028 -1028c164,-164 381,-246 597,-246 216,0 433,82 597,246l1028 1028z"/>
  <path class="fil0" d="M14378 15111l732 -732 -1151 -1809 -1390 1390 1808 1151zm1251 -509l-1028 1028 -1 -1c-85,85 -220,103 -325,36l-2240 -1426c-24,-12 -47,-28 -67,-48 -102,-102 -102,-269 0,-371l1851 -1851 1 1c13,-13 28,-25 44,-36 121,-77 283,-42 361,80l1426 2241c80,103 73,252 -21,347z"/>
  <path class="fil0" d="M14230 15259l1028 -1028c102,-102 269,-102 371,0 26,26 45,56 58,88l1070 2087c66,128 15,286 -114,352 -77,40 -166,37 -238,0l-2 -1 -2107 -1079c-128,-66 -179,-223 -114,-352 13,-25 29,-47 48,-66l-1 -1zm1145 -403l-520 520 1067 547 -547 -1067z"/>
  <path class="fil0" d="M2200 2571c-102,-102 -102,-269 0,-371 102,-102 269,-102 371,0l4510 4510c102,102 102,269 0,371 -102,102 -269,102 -371,0l-4510 -4510zm7506 7506c-102,-102 -102,-269 0,-371 102,-102 269,-102 371,0l3187 3187c102,102 102,269 0,371 -102,102 -269,102 -371,0l-3187 -3187z"/>
 </g>
</svg>
