<?xml version="1.0" encoding="UTF-8"?>
<!DOCTYPE svg PUBLIC "-//W3C//DTD SVG 1.0//EN" "http://www.w3.org/TR/2001/REC-SVG-20010904/DTD/svg10.dtd">
<!-- Creator: CorelDRAW X6 -->
<svg xmlns="http://www.w3.org/2000/svg" xml:space="preserve" width="64px" height="64px" version="1.0" style="shape-rendering:geometricPrecision; text-rendering:geometricPrecision; image-rendering:optimizeQuality; fill-rule:evenodd; clip-rule:evenodd"
viewBox="0 0 13839 13839"
 xmlns:xlink="http://www.w3.org/1999/xlink">
 <defs>
  <style type="text/css">
   <![CDATA[
    .fil0 {fill:#333333;fill-rule:nonzero}
   ]]>
  </style>
 </defs>
 <g id="Layer_x0020_1">
  <metadata id="CorelCorpID_0Corel-Layer"/>
  <path class="fil0" d="M1946 865l0 433 -865 0 0 -433 865 0zm-1081 657l433 0 0 865 -433 0 0 -865zm0 2162l433 0 0 865 -433 0 0 -865zm0 2162l433 0 0 865 -433 0 0 -865zm0 2162l433 0 0 865 -433 0 0 -865zm0 2162l433 0 0 865 -433 0 0 -865zm0 2162l433 0 0 210 222 0 0 433 -438 0 -216 0 0 -216 0 -426zm1952 642l0 -433 865 0 0 433 -865 0zm2162 0l0 -433 865 0 0 433 -865 0zm2162 0l0 -433 865 0 0 433 -865 0zm2162 0l0 -433 865 0 0 433 -865 0zm2162 0l0 -433 865 0 0 433 -865 0zm1509 -1085l-433 0 0 -865 433 0 0 865zm0 -2162l-433 0 0 -865 433 0 0 865zm0 -2162l-433 0 0 -865 433 0 0 865zm0 -2162l-433 0 0 -865 433 0 0 865zm0 -2162l-433 0 0 -865 433 0 0 865zm-218 -2376l0 433 -865 0 0 -433 865 0zm-2162 0l0 433 -865 0 0 -433 865 0zm-2162 0l0 433 -865 0 0 -433 865 0zm-2162 0l0 433 -865 0 0 -433 865 0zm-2162 0l0 433 -865 0 0 -433 865 0z"/>
  <path class="fil0" d="M2442 6766l4324 -4324c84,-84 222,-84 306,0l4324 4324c84,84 84,222 0,306l-4324 4324c-84,84 -222,84 -306,0l-4324 -4324c-84,-84 -84,-222 0,-306zm4477 -3865l-4018 4018 4018 4018 4018 -4018 -4018 -4018z"/>
  <path class="fil0" d="M216 0l6 0 860 0c119,0 216,97 216,216l0 6 0 860c0,119 -97,216 -216,216l-6 0 -860 0c-119,0 -216,-97 -216,-216l0 -6 0 -860c0,-119 97,-216 216,-216zm649 433l-433 0 0 433 433 0 0 -433z"/>
  <path class="fil0" d="M12757 0l6 0 860 0c119,0 216,97 216,216l0 6 0 860c0,119 -97,216 -216,216l-6 0 -860 0c-119,0 -216,-97 -216,-216l0 -6 0 -860c0,-119 97,-216 216,-216zm649 433l-433 0 0 433 433 0 0 -433z"/>
  <path class="fil0" d="M216 12541l6 0 860 0c119,0 216,97 216,216l0 6 0 860c0,119 -97,216 -216,216l-6 0 -860 0c-119,0 -216,-97 -216,-216l0 -6 0 -860c0,-119 97,-216 216,-216zm649 433l-433 0 0 433 433 0 0 -433z"/>
  <path class="fil0" d="M12757 12541l6 0 860 0c119,0 216,97 216,216l0 6 0 860c0,119 -97,216 -216,216l-6 0 -860 0c-119,0 -216,-97 -216,-216l0 -6 0 -860c0,-119 97,-216 216,-216zm649 433l-433 0 0 433 433 0 0 -433z"/>
 </g>
</svg>
